PathFileType	4	(X/Y/Z)	C:/Users/opensim2020/Desktop/walking_exp_matlab/subject03_walking05_straight_03.trc	
DataRate	CameraRate	NumFrames	NumMarkers	Units	OrigDataRate	OrigDataStartFrame	OrigNumFrames	
100.00	100.00	5	45	mm	100.00	2147	293	
Frame#	Time	LFHD			RFHD			LBHD			RBHD			C7			T10			CLAV			STRN			RBAK			LSHO			LUPA			LELB			LFRM			LWRA			LWRB			LFIN			RSHO			RUPA			RELB			RFRM			RWRA			RWRB			RFIN			LASI			RASI			LPSI			RPSI			LTHI			LKNE			LTIB			LANK			LHEE			LTOE			RTHI			RKNE			RTIB			RANK			RHEE			RTOE			*39			*40			*41			*42			*43			*44			
		X1	Y1	Z1	X2	Y2	Z2	X3	Y3	Z3	X4	Y4	Z4	X5	Y5	Z5	X6	Y6	Z6	X7	Y7	Z7	X8	Y8	Z8	X9	Y9	Z9	X10	Y10	Z10	X11	Y11	Z11	X12	Y12	Z12	X13	Y13	Z13	X14	Y14	Z14	X15	Y15	Z15	X16	Y16	Z16	X17	Y17	Z17	X18	Y18	Z18	X19	Y19	Z19	X20	Y20	Z20	X21	Y21	Z21	X22	Y22	Z22	X23	Y23	Z23	X24	Y24	Z24	X25	Y25	Z25	X26	Y26	Z26	X27	Y27	Z27	X28	Y28	Z28	X29	Y29	Z29	X30	Y30	Z30	X31	Y31	Z31	X32	Y32	Z32	X33	Y33	Z33	X34	Y34	Z34	X35	Y35	Z35	X36	Y36	Z36	X37	Y37	Z37	X38	Y38	Z38	X39	Y39	Z39	X40	Y40	Z40	X41	Y41	Z41	X42	Y42	Z42	X43	Y43	Z43	X44	Y44	Z44	X45	Y45	Z45	

37	0.360	-1079.26953	-1174.85559	1611.13513	-950.50580	-1205.26782	1615.78223	-1102.19214	-1295.03125	1550.55615	-973.12323	-1319.64917	1555.23413	-1050.59229	-1327.03516	1408.92566	-1061.00610	-1382.11389	1100.31519	-1024.11401	-1209.19287	1326.75159	-1026.47705	-1176.76868	1158.29590	-971.08392	-1407.73694	1238.93579	-1184.58240	-1214.93652	1366.50195	-1247.30139	-1192.61584	1170.56665	-1249.25928	-1167.53174	1049.68384	-1227.39758	-1112.48804	933.29193	-1177.28235	-1069.79297	829.69269	-1231.29553	-1082.43481	823.62842	-1208.28699	-1044.47107	751.96954	-876.26776	-1286.74304	1351.35352	-817.18848	-1328.11304	1128.54346	-808.57416	-1335.13794	1014.86450	-809.35059	-1346.41699	877.95435	-840.94159	-1329.32385	778.87335	-805.51044	-1369.85303	779.35956	-815.82941	-1362.24255	705.28412	-1145.86938	-1222.23193	911.48859	-911.19043	-1245.45996	936.06885	-1113.06653	-1386.06506	953.60938	-967.13373	-1399.92029	972.76550	-1196.31384	-1343.89905	623.93561	-1175.42224	-1393.02087	451.47067	-1195.75757	-1521.57996	302.49146	-1168.75366	-1658.68506	136.61816	-1142.37817	-1690.92126	104.39149	-1132.07935	-1520.27222	25.92939	-860.97882	-1259.93787	648.29767	-899.85461	-1211.26257	476.95798	-888.29431	-1227.30371	286.13135	-929.25830	-1220.63257	68.93181	-981.76532	-1261.49426	35.16320	-936.72589	-1077.52234	33.02601																		 
38	0.370	-1077.60461	-1167.64136	1612.61377	-948.85931	-1197.76379	1617.38611	-1100.30054	-1288.07751	1552.36926	-971.13409	-1312.41479	1557.13696	-1048.41321	-1320.08618	1410.13806	-1058.30322	-1373.92444	1101.52942	-1022.57782	-1201.71301	1328.42383	-1024.64685	-1168.35303	1160.09827	-968.44257	-1399.58643	1240.06458	-1182.60181	-1208.38110	1368.35010	-1245.85168	-1186.54333	1172.48523	-1248.22314	-1162.64270	1051.26050	-1227.39099	-1110.50024	933.18536	-1178.64417	-1071.19397	827.46704	-1232.99658	-1083.16431	822.77747	-1210.29834	-1048.33801	749.09692	-874.38092	-1278.73950	1353.04419	-814.69427	-1317.43738	1130.00647	-806.13159	-1322.74023	1016.31165	-806.40088	-1332.53589	879.38794	-837.95197	-1315.10376	780.26495	-801.93018	-1354.95483	780.46301	-812.07904	-1346.71228	706.54230	-1143.70667	-1214.02258	913.13904	-909.21899	-1236.09741	937.57983	-1110.44800	-1377.45764	954.99426	-964.45978	-1390.86462	973.98096	-1195.39319	-1333.57910	624.93182	-1175.70129	-1381.06909	451.70874	-1195.60400	-1512.34521	304.84705	-1168.50769	-1651.09998	139.97037	-1141.91174	-1685.92456	111.55841	-1132.25391	-1519.33057	26.09604	-860.28510	-1252.59583	648.89813	-899.28693	-1205.66309	477.03500	-887.68378	-1223.80627	286.17291	-929.29071	-1220.32947	68.89202	-981.56219	-1261.55566	35.19765	-936.90326	-1077.35437	32.91679	-1046.28625	-1272.76794	1664.58716															 
39	0.380	-1076.21411	-1160.59399	1614.09253	-947.17651	-1190.35181	1618.84619	-1098.43225	-1281.15698	1554.10803	-969.23785	-1305.05798	1558.90320	-1046.12646	-1313.02246	1410.97986	-1055.50146	-1365.63269	1102.50085	-1020.46002	-1194.30872	1329.94519	-1022.84930	-1159.98950	1161.74170	-965.62524	-1391.35156	1241.14832	-1180.58215	-1201.95374	1370.05762	-1244.42993	-1180.67871	1174.46582	-1247.16919	-1157.86731	1052.79517	-1227.49585	-1108.41833	933.23376	-1180.02942	-1072.73486	825.45343	-1234.74487	-1083.80701	822.17224	-1212.44983	-1052.21130	746.54620	-872.35565	-1270.76526	1354.88892	-812.06311	-1306.74438	1131.49707	-803.42365	-1310.37012	1017.83356	-802.99384	-1318.84314	881.01880	-834.20880	-1300.06714	782.12769	-798.29675	-1339.95508	781.69733	-808.29779	-1330.47302	707.66827	-1141.71069	-1205.58948	914.44653	-907.23035	-1226.63025	938.82178	-1107.73193	-1368.95374	956.34741	-961.61420	-1381.59265	974.95544	-1194.50012	-1322.92517	625.50610	-1176.03528	-1368.17859	451.35870	-1194.72131	-1505.90747	305.23611	-1167.53296	-1646.31165	141.35602	-1141.03186	-1679.82849	119.26150	-1131.97461	-1518.68591	26.13622	-859.36450	-1245.56812	649.29865	-898.32489	-1200.47473	476.91299	-887.29150	-1220.53918	286.05042	-929.30939	-1220.18433	68.89343	-981.63831	-1261.53992	35.21218	-937.24225	-1077.13586	32.79542	-1048.20264	-1261.42261	1665.84668															 
40	0.390	-1074.60327	-1153.39636	1615.29834	-945.57782	-1182.72290	1620.20483	-1096.53394	-1274.22205	1555.73987	-967.26117	-1297.72656	1560.59619	-1043.77759	-1306.06226	1411.87842	-1052.52283	-1357.50635	1103.33167	-1019.01111	-1186.78589	1331.37610	-1020.91010	-1151.60205	1163.50439	-962.56854	-1383.02283	1241.94873	-1178.57520	-1195.63806	1371.61987	-1242.89941	-1174.84497	1176.15747	-1246.17200	-1153.14490	1054.14502	-1227.53137	-1106.45166	933.26813	-1181.55920	-1074.12427	823.62958	-1236.59460	-1084.26465	821.69824	-1214.79297	-1056.02246	744.22327	-870.31445	-1262.61877	1356.48926	-809.17407	-1296.06311	1132.95898	-800.48108	-1298.16760	1019.36841	-799.73651	-1304.86560	882.41272	-831.10846	-1285.16296	783.51306	-794.51410	-1324.73474	782.86530	-804.45508	-1314.16357	708.70496	-1140.10364	-1197.47839	915.97198	-905.27020	-1217.16003	939.69342	-1104.96814	-1360.50720	957.60303	-958.60901	-1372.08093	975.83038	-1193.64282	-1311.68958	625.74780	-1176.32031	-1354.14685	450.42578	-1194.37720	-1494.67175	307.04706	-1167.09668	-1636.72559	144.16354	-1139.57935	-1673.92188	127.18131	-1131.94519	-1517.62427	26.32486	-858.45801	-1238.75867	649.56671	-897.53094	-1195.58606	476.49612	-887.03412	-1217.59534	285.84375	-929.87262	-1219.84741	68.75029	-981.89032	-1261.46484	35.17935	-937.50598	-1076.93677	32.68192																		 
41	0.400	-1073.96924	-1146.76819	1616.66321	-943.93549	-1174.85266	1621.09924	-1094.25269	-1266.97375	1556.94275	-965.24292	-1290.50378	1562.22607	-1041.35657	-1299.02002	1412.49988	-1047.89026	-1352.98706	1105.49768	-1016.88641	-1179.50964	1332.54382	-1019.15344	-1143.25244	1164.91980	-959.33197	-1374.72656	1242.51611	-1176.53772	-1189.44824	1372.92310	-1241.35205	-1169.16541	1177.48914	-1245.15576	-1148.69275	1055.28003	-1227.86047	-1104.37769	933.29657	-1183.23340	-1075.29919	822.00861	-1238.50244	-1084.47913	821.30377	-1217.26367	-1059.61487	742.08844	-868.25714	-1254.43591	1357.87280	-806.11139	-1285.35510	1134.31995	-797.19379	-1286.07031	1020.77234	-796.20007	-1290.94470	883.71887	-828.47101	-1270.90125	784.81598	-790.53418	-1309.41833	783.93506	-800.37701	-1297.90088	709.92700	-1138.30261	-1189.33557	917.42169	-903.53412	-1207.59448	940.25092	-1102.28796	-1352.30457	958.84894	-955.60999	-1362.55847	976.69299	-1192.95544	-1299.92493	625.60413	-1175.98462	-1340.20679	448.51535	-1193.93164	-1482.38696	308.48965	-1166.55896	-1626.09033	146.60278	-1138.18433	-1665.94714	135.15123	-1131.92383	-1516.45422	26.48688	-857.66235	-1232.14392	649.85327	-896.50873	-1190.93738	475.89954	-886.70886	-1214.99951	285.53894	-930.23187	-1219.44946	68.76478	-982.20239	-1261.38391	35.16176	-937.77246	-1076.69934	32.54220	-1044.86133	-1246.69031	1668.84741															 
